<svg xmlns="http://www.w3.org/2000/svg" width="800" height="334" viewBox="0 0 800 334" fill="none"><path d="M399.135 1.79018C404.429 -0.0440322 410.211 1.48719 415.063 3.8798C418.452 6.06228 421.842 8.26798 425.638 9.69588C425.929 10.2415 426.532 11.3211 426.822 11.8552C426.672 12.215 426.381 12.958 426.23 13.3179C428.935 19.4706 430.665 26.7611 428.041 33.2261C426.254 35.4086 423.142 35.7464 420.623 36.5915C420.612 39.7143 421.111 42.8035 421.378 45.9031C426.764 46.7737 431.324 43.024 436.653 43.3955C437.373 40.412 437.942 37.3798 438.896 34.4555C439.999 36.3942 440.044 38.6242 440.057 40.8067C441.45 41.2014 442.866 41.5613 444.292 41.9084C444.306 42.4436 444.316 43.5116 444.316 44.0456C467.673 44.1849 491.018 43.94 514.376 44.1733C514.318 44.972 514.204 46.5752 514.158 47.3774C514.761 47.3774 515.992 47.389 516.605 47.389C516.582 43.1413 516.605 38.8796 516.593 34.6319C517.185 34.6075 518.346 34.5727 518.927 34.5611C518.941 37.9045 518.951 41.2479 518.986 44.5924C519.496 45.2193 520.517 46.4719 521.03 47.0988C521.413 46.6449 522.178 45.7533 522.56 45.2994C524.337 46.9606 523.327 49.236 523.248 51.2769C529.783 51.206 536.387 51.6472 542.902 51.1132C543.389 50.7533 544.364 50.0451 544.852 49.6864C545.747 50.0335 546.651 50.383 547.545 50.7428C550.482 50.6709 553.431 50.6616 556.38 50.65C556.319 52.1707 556.273 53.6904 556.215 55.2123C552.419 55.1531 548.611 55.073 544.873 55.7219C542.458 53.6451 539.219 54.3045 536.305 54.2255C531.824 54.4345 527.202 53.6451 522.862 55.0718C520.283 55.7916 517.452 55.6186 515.177 54.1547C514.629 55.513 515.467 58.5545 513.178 58.4373C504.169 58.5545 495.173 58.3572 486.176 58.4965C484.945 59.1466 483.703 59.7618 482.475 60.3643C481.174 64.2417 477.448 66.8294 474.276 69.1976C473.882 75.153 476.238 80.7137 477.155 86.4938C475.379 87.0034 473.591 87.5281 471.838 88.1086C469.319 94.0524 470.863 102.166 465.036 106.313C460.566 108.912 457.608 114.565 451.581 113.673C454.646 116.227 450.745 115.426 451.151 113.382C440.251 112.419 431.068 106.022 421.595 101.148C421.154 103.817 420.458 106.441 419.737 109.053C423.336 109.738 426.308 112.385 426.947 116.077C428.096 124.123 425.797 132.111 425.832 140.178C426.088 144.915 424.056 149.255 421.525 153.121C419.308 155.629 415.814 153.05 413.155 152.68C412.55 153.852 411.96 155.026 411.379 156.209C412.134 159.366 412.459 162.651 413.515 165.739C419.447 172.298 424.845 179.404 428.99 187.24C433.256 196.114 437.058 205.204 440.379 214.473C440.703 216.274 442.398 216.92 443.886 217.573C444.084 219.43 444.281 221.285 444.467 223.167C445.047 224.015 445.639 224.861 446.243 225.72C446.603 237.168 445.198 248.566 443.42 259.862C442.319 264.959 445.3 269.939 444.093 275.07C444.232 277.697 442.424 279.681 441.574 282.003C441.411 287.424 441.144 292.914 441.739 298.326C442.154 302.296 445.512 304.849 447.787 307.81C450.271 310.447 452.349 313.986 456.111 314.926C459.651 315.982 463.03 317.514 466.15 319.524C467.102 321.879 466.928 324.378 466.475 326.825C459.672 328.079 452.73 327.453 445.858 327.558C440.562 327.836 435.839 324.992 430.694 324.398C425.714 324.273 419.642 326.745 415.814 322.287C417.437 316.102 417.567 309.459 420.536 303.688C421.488 297.153 419.679 290.524 420.06 283.93C419.494 283.454 418.354 282.502 417.785 282.023C418.194 277.718 416.068 273.886 415.359 269.766C414.897 263.749 414.349 257.738 413.652 251.747C413.106 248.833 414.616 246.165 416.67 244.226C416.856 240.859 417.311 237.526 417.634 234.184C417.135 232.012 415.405 230.4 414.291 228.542C410.564 230.112 405.537 229.368 403.32 225.72C398.062 217.897 392.814 210.072 387.497 202.293C385.407 202.155 383.202 202.374 381.251 201.539C379.002 199.23 377.827 196.153 376.39 193.344C374.334 195.654 374.483 199.194 372.048 201.296C366.894 206.243 365.524 213.51 362.83 219.847C360.766 223.955 361.927 228.912 359.626 232.919C358.396 235.077 355.308 235.506 354.495 237.97C353.427 240.626 352.173 243.378 349.677 244.994C346.973 246.768 346.254 250.137 345.048 252.921C343.945 255.488 345.582 258.18 345.199 260.816C343.481 269.187 338.152 276.186 335.912 284.384C334.89 288.075 333.426 292.231 329.131 293.019C324.243 301.749 321.551 312.431 324.314 322.26C326.009 325.348 325.916 328.819 325.394 332.221C317.629 332.825 309.664 333.869 302.038 331.699C300.25 328.157 300.505 323.99 300.877 320.162C303.232 310.095 306.356 300.205 308.271 290.036C305.879 287.912 306.438 284.662 306.483 281.817C306.403 276.512 310.012 272.263 312.519 267.909C313.461 263.44 313.02 258.637 315.329 254.536C318.047 249.405 320.344 243.857 324.536 239.711C325.336 236.054 328.031 233.293 329.12 229.772C330.281 226.66 328.25 223.503 328.658 220.323C329.655 210.674 331.41 201.121 332.93 191.543C330.052 189.14 330.98 185.322 330.063 182.082C330.516 180.805 331.085 179.587 331.769 178.402C331.05 177.74 330.343 177.067 329.622 176.406C330.318 173.001 330.121 166.907 335.345 168.013C335.67 156.741 331.758 145.828 333.07 134.543C333.766 135.355 334.45 136.18 335.148 137.004L334.776 133.185C336.959 132.024 339.28 131.13 341.718 130.677C337.748 130.156 333.882 129.146 329.991 128.24C329.051 125.766 329.575 123.132 329.921 120.601C331.43 112.057 331.988 103.396 332.301 94.7361C336.701 93.2061 341.554 94.5051 345.849 92.4608C344.516 81.6296 344.179 70.3237 348.031 59.9325C351.131 51.0853 357.053 42.5527 366.292 39.4427C370.657 38.399 376.148 37.2254 379.234 41.4626C380.081 40.6848 380.929 39.8838 381.776 39.106C374.731 25.1126 383.147 4.6692 399.135 1.79018M455.519 62.4818C453.661 63.6195 451.839 64.9209 453.791 66.9873C452.839 67.5549 451.885 68.1017 450.921 68.623C449.412 69.7839 446.023 70.4444 446.417 72.7917C448.113 75.5142 449.573 78.3761 450.783 81.3464C454.485 78.306 457.434 74.2173 459.431 69.8895C459.849 69.46 460.697 68.6009 461.114 68.1818C460.928 66.1967 460.487 64.2568 459.709 62.4238C458.316 62.4482 456.912 62.4702 455.519 62.4818V62.4818Z" fill="#829AB4"></path><path d="M489.58 166.405C494.896 159.697 503.487 155.981 512.006 156.12C537.929 156.144 563.864 156.108 589.786 156.131C602.431 156.398 614.759 166.279 616.221 179.119C580.338 179 544.464 179.224 508.595 179C508.56 203.008 508.513 227.027 508.595 251.047C536.131 251.002 563.665 250.955 591.204 251.071C591.098 242.468 591.236 233.866 591.123 225.265C577.507 225.343 563.888 225.37 550.271 225.265C539.348 224.846 531.222 215.409 528.762 205.356C558.039 205.251 587.306 205.24 616.581 205.367C616.456 220.076 616.653 234.797 616.477 249.506C616.128 261.893 605.473 272.794 593.259 274.037C565.014 274.037 536.758 274.025 508.513 274.025C500.074 273.965 492.609 268.636 487.849 261.985C484.599 257.283 483.866 251.444 483.403 245.906C483.357 226.171 483.426 206.424 483.379 186.689C483.486 179.535 484.751 171.979 489.58 166.405V166.405ZM660.846 156.931C663.762 156.142 666.801 156.085 669.811 156.12C693.771 156.192 717.744 156.04 741.705 156.178C755.287 156.758 767.22 168.486 767.744 182.112C767.768 204.136 767.768 226.168 767.744 248.204C767.5 261.704 755.543 274.289 741.835 274.058C715.482 273.941 689.13 274.139 662.776 273.965C649.634 272.502 639.546 259.954 639.453 246.962C639.267 226.878 639.476 206.771 639.349 186.689C639.244 180.768 640.312 174.685 643.447 169.577C647.126 163.156 653.719 158.662 660.846 156.931M664.98 178.364C665.026 203.137 664.876 227.921 665.05 252.695C690.787 252.766 716.538 252.683 742.274 252.727C742.353 227.933 742.285 203.135 742.306 178.325C716.535 178.316 690.752 178.271 664.98 178.364V178.364ZM0.0409528 184.261C0.587735 170.83 11.8357 158.209 25.5226 157.687C51.096 157.663 76.6821 157.663 102.258 157.699C116.072 157.56 127.579 170.04 128.622 183.425C126.776 183.577 124.93 183.691 123.084 183.715C92.634 183.682 62.1837 183.727 31.7439 183.691C31.7311 205.33 31.6173 226.968 31.8019 248.608C64.1224 248.561 96.4301 248.538 128.749 248.621C127.832 262.492 116.153 274.801 102.073 275.345C78.9018 275.671 55.7303 275.357 32.5576 275.497C26.788 275.694 20.8442 274.973 15.6446 272.338C6.68244 267.754 0.342786 258.408 0.0316656 248.261C0.00612588 226.924 -0.028701 205.597 0.0409528 184.261V184.261ZM153.233 173.743C157.493 164.443 167.245 157.537 177.624 157.664C203.164 157.688 228.715 157.664 254.268 157.675C267.605 157.757 279.354 169.434 280.295 182.613C246.605 183.089 212.892 182.681 179.193 182.81C179.041 189.59 179.111 196.369 179.1 203.159C204.152 203.239 229.216 203.183 254.268 203.183C261.696 203.473 269.499 205.854 274.559 211.599C280.246 216.685 282.651 224.428 282.836 231.881C282.963 239.322 282.963 246.8 281.756 254.169C278.993 266.104 267.581 274.997 255.404 275.38C231.05 275.611 206.68 275.403 182.326 275.496C176.581 275.613 170.637 274.788 165.539 271.99C157.46 267.775 151.655 259.298 150.855 250.199C185.148 250.364 219.453 250.303 253.745 250.223C253.827 243 253.78 235.78 253.78 228.561C228.403 228.387 203.014 228.536 177.624 228.489C163.033 228.606 150.124 215.197 150.516 200.652C151.027 191.69 148.962 182.067 153.233 173.743V173.743ZM775.671 160.08C778.899 159.998 782.161 159.871 785.377 160.358C783.879 160.741 782.356 160.939 780.826 160.962C780.629 164.457 780.605 167.952 780.652 171.444C780.315 171.444 779.654 171.444 779.328 171.455C779.351 167.868 779.386 164.281 779.34 160.705C778.434 160.777 776.635 160.939 775.741 161.007L775.671 160.08V160.08ZM787.186 159.95C787.873 159.986 789.264 160.055 789.963 160.09C790.95 163.235 792.111 166.323 793.55 169.306C794.897 166.3 795.779 163.094 797.265 160.171C797.915 160.078 799.216 159.881 799.863 159.788C799.504 164.06 800.978 168.785 798.67 172.674C798.252 168.89 798.426 165.081 798.181 161.285C796.416 164.827 795.582 168.807 793.272 172.082C791.506 168.717 790.753 164.883 788.64 161.706C788.502 165.096 788.57 168.497 788.524 171.896L787.282 171.756C787.28 167.823 787.222 163.886 787.186 159.95V159.95Z" fill="#829AB4"></path></svg>