<svg xmlns="http://www.w3.org/2000/svg" xmlns:xlink="http://www.w3.org/1999/xlink" id="Layer_1" x="0px" y="0px" viewBox="0 0 1905.998 858.013" xml:space="preserve"><g>	<g>		<rect y="612.152" opacity="0.4" fill="#0155F5" width="238.125" height="122.43"></rect>	</g>	<g>		<rect x="476.25" y="0" opacity="0.4" fill="#0155F5" width="238.125" height="122.43"></rect>	</g>	<g>		<rect x="714.374" y="122.43" opacity="0.4" fill="#0155F5" width="238.125" height="122.43"></rect>	</g>	<g>		<rect x="952.499" y="0" opacity="0.8" fill="#0155F5" width="238.125" height="122.43"></rect>	</g>	<g>		<rect x="1190.624" y="122.43" opacity="0.2" fill="#0155F5" width="238.125" height="122.43"></rect>		<rect x="1190.624" y="489.721" opacity="0.2" fill="#0155F5" width="238.125" height="122.43"></rect>	</g>	<g>		<rect x="1428.749" y="122.43" opacity="0.8" fill="#0155F5" width="238.125" height="122.43"></rect>		<rect x="1428.749" y="367.291" opacity="0.9" fill="#0155F5" width="238.125" height="122.43"></rect>		<rect x="1428.749" y="612.152" opacity="0.2" fill="#0155F5" width="238.125" height="122.43"></rect>	</g>	<g>		<rect x="1666.873" y="244.861" opacity="0.9" fill="#0155F5" width="238.125" height="122.43"></rect>		<rect x="1666.873" y="612.152" opacity="0.4" fill="#0155F5" width="238.125" height="122.43"></rect>	</g></g><path opacity="0.1" fill="#FFFFFF" d="M1667.874,0h-1h-237.125h-1h-237.125h-1H953.499h-1H715.375h-1 H477.25h-1H239.125h-1H0v122.431v1v121.431v1v121.43v1v121.431v1v121.431v1v121.43v1v122.431h238.125h1H476.25h1h237.125h1H952.5h1 h237.125h1h237.125h1h237.125h1h238.124V735.582v-1v-121.43v-1v-121.43v-1V368.291v-1v-121.43v-1v-121.43v-1V0H1667.874z  M1429.749,1h237.125v121.431h-237.125V1z M1666.874,244.861h-237.125v-121.43h237.125V244.861z M1666.874,367.291h-237.125v-121.43 h237.125V367.291z M1666.874,489.722h-237.125V368.291h237.125V489.722z M1666.874,612.152h-237.125v-121.43h237.125V612.152z  M1666.874,734.582h-237.125v-121.43h237.125V734.582z M239.125,613.152H476.25v121.43H239.125V613.152z M239.125,490.722H476.25 v121.431H239.125V490.722z M239.125,368.291H476.25v121.431H239.125V368.291z M239.125,245.861H476.25v121.43H239.125V245.861z  M239.125,123.431H476.25v121.431H239.125V123.431z M1428.749,244.861h-237.125v-121.43h237.125V244.861z M1428.749,367.291 h-237.125v-121.43h237.125V367.291z M1428.749,489.722h-237.125V368.291h237.125V489.722z M1428.749,612.152h-237.125v-121.43 h237.125V612.152z M477.25,490.722h237.125v121.431H477.25V490.722z M477.25,368.291h237.125v121.431H477.25V368.291z  M477.25,245.861h237.125v121.43H477.25V245.861z M1190.624,367.291H953.5v-121.43h237.125L1190.624,367.291L1190.624,367.291z  M1190.624,489.722H953.5V368.291h237.125L1190.624,489.722L1190.624,489.722z M715.375,368.291H952.5v121.431H715.375V368.291z  M952.499,367.291H715.375v-121.43H952.5L952.499,367.291L952.499,367.291z M715.375,490.722H952.5v121.431H715.375V490.722z  M953.5,490.722h237.125v121.431H953.5V490.722z M1190.624,244.861H953.5v-121.43h237.125L1190.624,244.861L1190.624,244.861z  M952.499,244.861H715.375v-121.43H952.5L952.499,244.861L952.499,244.861z M714.375,244.861H477.25v-121.43h237.125V244.861z  M477.25,613.152h237.125v121.43H477.25V613.152z M715.375,613.152H952.5v121.43H715.375V613.152z M953.5,613.152h237.125v121.43 H953.5V613.152z M1191.624,613.152h237.125v121.43h-237.125V613.152z M1191.624,1h237.125v121.431h-237.125V1z M953.5,1h237.125 v121.431H953.5V1z M715.375,1H952.5v121.431H715.375V1z M477.25,1h237.125v121.431H477.25V1z M239.125,1H476.25v121.431H239.125V1z  M1,1h237.125v121.431H1V1z M1,123.431h237.125v121.431H1V123.431z M1,245.861h237.125v121.43H1V245.861z M1,368.291h237.125 v121.431H1V368.291z M1,490.722h237.125v121.431H1V490.722z M1,613.152h237.125v121.43H1V613.152z M238.125,857.013H1V735.582 h237.125V857.013z M476.25,857.013H239.125V735.582H476.25V857.013z M714.375,857.013H477.25V735.582h237.125V857.013z  M952.499,857.013H715.375V735.582H952.5L952.499,857.013L952.499,857.013z M1190.624,857.013H953.5V735.582h237.125 L1190.624,857.013L1190.624,857.013z M1428.749,857.013h-237.125V735.582h237.125V857.013z M1666.874,857.013h-237.125V735.582 h237.125V857.013z M1904.998,857.013h-237.124V735.582h237.124V857.013z M1904.998,734.582h-237.124v-121.43h237.124V734.582z  M1904.998,612.152h-237.124v-121.43h237.124V612.152z M1904.998,489.722h-237.124V368.291h237.124V489.722z M1904.998,367.291 h-237.124v-121.43h237.124V367.291z M1904.998,244.861h-237.124v-121.43h237.124V244.861z M1667.874,122.431V1h237.124v121.431 H1667.874z"></path></svg>